<svg xmlns="http://www.w3.org/2000/svg" xmlns:xlink="http://www.w3.org/1999/xlink" width="500" zoomAndPan="magnify" viewBox="0 0 375 374.999991" height="500" preserveAspectRatio="xMidYMid meet" version="1.0"><defs><g/><clipPath id="0510abd87f"><path d="M 110.921875 226.90625 L 272.921875 226.90625 L 272.921875 268.90625 L 110.921875 268.90625 Z M 110.921875 226.90625 " clip-rule="nonzero"/></clipPath></defs><g clip-path="url(#0510abd87f)"><path fill="#444444" d="M 113.511719 240.082031 C 113.566406 239.84375 113.613281 239.613281 113.679688 239.382812 L 113.878906 238.707031 C 113.988281 238.265625 114.191406 237.84375 114.328125 237.433594 C 114.691406 236.621094 115.074219 235.863281 115.535156 235.160156 C 116.011719 234.46875 116.507812 233.804688 117.09375 233.21875 C 118.257812 232.042969 119.625 231.066406 121.242188 230.347656 L 121.546875 230.207031 L 121.859375 230.085938 C 122.070312 230.011719 122.285156 229.921875 122.503906 229.84375 C 122.941406 229.726562 123.398438 229.546875 123.871094 229.441406 C 124.347656 229.320312 124.835938 229.230469 125.351562 229.144531 C 125.355469 229.144531 125.359375 229.140625 125.367188 229.140625 C 125.972656 229.046875 126.132812 228.238281 125.59375 227.945312 C 125.085938 227.667969 124.539062 227.449219 123.972656 227.28125 C 123.410156 227.109375 122.828125 227.039062 122.230469 226.960938 C 121.933594 226.925781 121.636719 226.9375 121.335938 226.933594 L 120.882812 226.933594 C 120.730469 226.9375 120.582031 226.960938 120.429688 226.976562 C 118.003906 227.199219 115.644531 228.375 113.914062 230.15625 C 113.042969 231.039062 112.355469 232.09375 111.828125 233.203125 C 111.316406 234.328125 111.027344 235.535156 110.925781 236.734375 C 110.914062 237.035156 110.921875 237.339844 110.921875 237.640625 C 110.925781 237.789062 110.921875 237.933594 110.933594 238.085938 C 110.945312 238.234375 110.96875 238.382812 110.988281 238.53125 C 111.035156 238.824219 111.058594 239.113281 111.125 239.402344 C 111.191406 239.6875 111.265625 239.972656 111.355469 240.246094 C 111.503906 240.695312 111.6875 241.132812 111.90625 241.542969 C 112.238281 242.175781 113.199219 242.019531 113.296875 241.308594 C 113.355469 240.886719 113.425781 240.480469 113.511719 240.082031 Z M 270.527344 241.308594 C 270.625 242.019531 271.582031 242.175781 271.917969 241.542969 C 272.136719 241.132812 272.320312 240.695312 272.46875 240.246094 C 272.558594 239.972656 272.632812 239.6875 272.699219 239.402344 C 272.761719 239.113281 272.789062 238.824219 272.835938 238.53125 C 272.851562 238.382812 272.878906 238.234375 272.890625 238.085938 C 272.902344 237.933594 272.898438 237.789062 272.902344 237.640625 C 272.902344 237.339844 272.910156 237.035156 272.898438 236.734375 C 272.796875 235.535156 272.507812 234.328125 271.996094 233.203125 C 271.46875 232.09375 270.78125 231.039062 269.90625 230.15625 C 268.179688 228.375 265.816406 227.199219 263.394531 226.976562 C 263.242188 226.960938 263.09375 226.9375 262.941406 226.933594 L 262.488281 226.933594 C 262.1875 226.9375 261.890625 226.925781 261.589844 226.960938 C 260.996094 227.039062 260.414062 227.109375 259.851562 227.28125 C 259.285156 227.449219 258.738281 227.667969 258.226562 227.945312 C 257.6875 228.238281 257.851562 229.046875 258.457031 229.140625 C 258.460938 229.140625 258.46875 229.144531 258.472656 229.144531 C 258.988281 229.230469 259.476562 229.320312 259.953125 229.441406 C 260.425781 229.546875 260.878906 229.726562 261.320312 229.84375 C 261.539062 229.921875 261.753906 230.011719 261.960938 230.085938 L 262.277344 230.207031 L 262.582031 230.347656 C 264.199219 231.066406 265.566406 232.042969 266.726562 233.21875 C 267.3125 233.804688 267.808594 234.46875 268.289062 235.160156 C 268.753906 235.863281 269.132812 236.621094 269.496094 237.433594 C 269.632812 237.84375 269.832031 238.265625 269.941406 238.707031 L 270.144531 239.382812 C 270.210938 239.613281 270.257812 239.84375 270.308594 240.082031 C 270.394531 240.480469 270.464844 240.886719 270.527344 241.308594 Z M 191.316406 268.894531 C 178.46875 268.894531 165.707031 266.277344 153.386719 261.113281 C 141.464844 256.113281 129.925781 248.722656 119.085938 239.144531 C 118.265625 238.417969 118.195312 237.167969 118.921875 236.351562 C 119.652344 235.535156 120.90625 235.460938 121.726562 236.1875 C 143.003906 255 167.066406 264.941406 191.316406 264.941406 C 215.769531 264.941406 240.015625 254.835938 261.433594 235.71875 C 262.25 234.988281 263.503906 235.058594 264.238281 235.871094 C 264.972656 236.679688 264.902344 237.933594 264.085938 238.660156 C 253.183594 248.394531 241.566406 255.902344 229.550781 260.984375 C 217.132812 266.234375 204.269531 268.894531 191.316406 268.894531 " fill-opacity="1" fill-rule="nonzero"/></g><g fill="#444444" fill-opacity="1"><g transform="translate(37.500002, 208.352325)"><g><path d="M 29.179688 -23.808594 C 30.300781 -22.558594 31.148438 -21.617188 31.957031 -20.945312 C 32.761719 -20.273438 33.476562 -19.960938 34.507812 -19.960938 C 36.429688 -19.960938 37.996094 -21.617188 39.832031 -23.808594 L 49.410156 -36.074219 L 49.410156 -6.355469 C 49.410156 -3.847656 50.441406 -2.058594 51.828125 -0.984375 C 53.214844 0.132812 54.914062 0.671875 56.304688 0.671875 C 58.316406 0.671875 60.0625 -0.132812 61.316406 -1.386719 C 62.570312 -2.640625 63.285156 -4.386719 63.285156 -6.355469 L 63.285156 -45.472656 C 63.285156 -46.234375 63.285156 -47.039062 63.328125 -47.933594 C 63.328125 -48.785156 63.285156 -49.679688 63.195312 -50.574219 C 63.015625 -52.320312 62.570312 -54.066406 61.496094 -55.363281 C 60.421875 -56.617188 58.71875 -57.464844 56.035156 -57.464844 C 54.066406 -57.464844 52.855469 -57.242188 51.960938 -56.796875 C 51.066406 -56.347656 50.574219 -55.722656 50.171875 -55.050781 L 49.277344 -53.707031 C 48.828125 -53.035156 48.023438 -51.960938 46.90625 -50.53125 C 44.621094 -47.664062 40.816406 -43.054688 34.328125 -35.714844 L 17.8125 -55.003906 C 16.695312 -56.214844 15.753906 -56.796875 14.546875 -57.152344 C 13.292969 -57.464844 11.769531 -57.464844 9.398438 -57.464844 C 7.472656 -57.464844 6.3125 -57.152344 5.640625 -56.660156 C 4.921875 -56.125 4.746094 -55.40625 4.746094 -54.511719 C 4.746094 -53.707031 4.878906 -52.945312 5.101562 -52.230469 C 5.324219 -51.46875 5.414062 -50.707031 5.414062 -49.949219 C 5.460938 -46.5 5.460938 -42.921875 5.460938 -39.25 L 5.460938 -28.105469 C 5.460938 -24.347656 5.460938 -20.632812 5.460938 -16.960938 C 5.414062 -13.292969 5.414062 -9.757812 5.414062 -6.355469 C 5.414062 -4.386719 6.175781 -2.640625 7.429688 -1.386719 C 8.683594 -0.132812 10.472656 0.671875 12.441406 0.671875 C 14.410156 0.671875 16.15625 -0.132812 17.410156 -1.386719 C 18.664062 -2.640625 19.425781 -4.386719 19.425781 -6.355469 L 19.425781 -12.800781 C 19.378906 -14.949219 19.378906 -17.230469 19.378906 -19.601562 L 19.378906 -27.257812 C 19.335938 -29.941406 19.335938 -32.894531 19.335938 -36.117188 Z M 29.179688 -23.808594 "/></g></g></g><g fill="#444444" fill-opacity="1"><g transform="translate(105.484309, 208.352325)"><g><path d="M 43.683594 -43.996094 C 40.996094 -43.996094 39.117188 -42.25 38.042969 -38.894531 L 37.996094 -38.757812 C 34.910156 -42.027344 30.570312 -43.949219 25.199219 -43.949219 C 19.109375 -43.949219 13.515625 -41.445312 9.445312 -37.371094 C 5.371094 -33.296875 2.863281 -27.75 2.863281 -21.617188 C 2.863281 -15.484375 5.371094 -9.890625 9.445312 -5.863281 C 13.515625 -1.835938 19.109375 0.714844 25.199219 0.714844 C 30.480469 0.714844 34.730469 -1.164062 37.773438 -4.25 L 38.042969 -3.582031 C 39.117188 -1.03125 40.816406 0.714844 43.503906 0.714844 C 46.1875 0.714844 47.53125 -0.761719 47.53125 -3.445312 L 47.53125 -40.144531 C 47.53125 -42.699219 46.234375 -43.996094 43.683594 -43.996094 Z M 31.0625 -15.53125 C 29.582031 -13.917969 27.523438 -12.933594 25.199219 -12.933594 C 22.871094 -12.933594 20.8125 -13.917969 19.335938 -15.53125 C 17.859375 -17.097656 16.960938 -19.289062 16.960938 -21.617188 C 16.960938 -23.945312 17.859375 -26.136719 19.335938 -27.703125 C 20.8125 -29.269531 22.871094 -30.253906 25.199219 -30.253906 C 27.523438 -30.253906 29.582031 -29.269531 31.0625 -27.703125 C 32.539062 -26.136719 33.433594 -23.945312 33.433594 -21.617188 C 33.433594 -19.289062 32.539062 -17.097656 31.0625 -15.53125 Z M 31.0625 -15.53125 "/></g></g></g><g fill="#444444" fill-opacity="1"><g transform="translate(158.520126, 208.352325)"><g><path d="M 33.789062 -42.339844 C 31.417969 -43.503906 28.375 -43.859375 25.914062 -43.816406 C 23.363281 -43.59375 21.035156 -42.742188 18.933594 -41.667969 C 17.1875 -40.773438 15.710938 -39.609375 14.457031 -38.445312 L 14.320312 -38.847656 C 13.113281 -42.472656 11.414062 -43.949219 8.726562 -43.949219 C 6.132812 -43.949219 4.832031 -42.652344 4.832031 -40.101562 L 4.832031 -6.355469 C 4.832031 -4.386719 5.59375 -2.640625 6.847656 -1.386719 C 8.101562 -0.0898438 9.890625 0.671875 11.859375 0.671875 C 13.785156 0.671875 15.53125 -0.0898438 16.828125 -1.386719 C 18.082031 -2.640625 18.886719 -4.386719 18.886719 -6.355469 L 18.886719 -22.199219 C 19.199219 -25.914062 20.675781 -28.867188 23.542969 -29.898438 C 24.660156 -30.210938 25.78125 -30.300781 26.898438 -30.164062 C 28.015625 -29.988281 29.136719 -29.898438 30.210938 -29.851562 C 32.539062 -29.851562 34.148438 -30.300781 35.582031 -31.417969 C 36.96875 -32.539062 37.953125 -34.328125 37.953125 -36.296875 C 37.953125 -39.207031 36.164062 -41.175781 33.789062 -42.339844 Z M 33.789062 -42.339844 "/></g></g></g><g fill="#444444" fill-opacity="1"><g transform="translate(198.397688, 208.352325)"><g><path d="M 41.355469 -37.417969 C 39.609375 -39.339844 37.148438 -40.996094 34.28125 -42.160156 C 31.417969 -43.324219 28.242188 -43.949219 25.019531 -43.949219 C 18.886719 -43.949219 13.335938 -41.445312 9.308594 -37.371094 C 5.28125 -33.296875 2.730469 -27.75 2.730469 -21.617188 C 2.730469 -15.484375 5.28125 -9.890625 9.308594 -5.863281 C 13.335938 -1.835938 18.886719 0.714844 25.019531 0.714844 C 30.433594 0.714844 35.132812 -0.714844 38.445312 -2.910156 C 41.757812 -5.058594 43.726562 -7.921875 43.726562 -10.921875 C 43.726562 -13.605469 42.429688 -15.574219 40.460938 -16.605469 C 38.355469 -17.632812 35.894531 -17.367188 34.058594 -16.425781 C 32.402344 -15.21875 30.480469 -14.144531 28.375 -13.738281 C 25.464844 -13.070312 22.558594 -13.425781 20.410156 -14.769531 C 18.261719 -16.113281 16.828125 -18.394531 16.828125 -21.617188 C 16.828125 -24.972656 18.394531 -27.257812 20.585938 -28.554688 C 22.78125 -29.808594 25.691406 -30.074219 28.375 -29.496094 C 29.851562 -29 31.238281 -28.375 32.628906 -27.703125 C 34.015625 -27.03125 35.402344 -26.449219 36.835938 -26.09375 C 38.804688 -25.914062 40.550781 -26.628906 41.757812 -27.792969 C 42.964844 -28.957031 43.683594 -30.613281 43.683594 -32.402344 C 43.683594 -34.148438 42.785156 -35.847656 41.355469 -37.417969 Z M 41.355469 -37.417969 "/></g></g></g><g fill="#ff9000" fill-opacity="1"><g transform="translate(298.799861, 216.757945)"><g><path d="M 43.515625 -87.019531 C 41.597656 -87.351562 39.191406 -86.816406 36.820312 -85.730469 C 34.453125 -84.640625 32.121094 -83 30.347656 -81.402344 C 28.570312 -79.800781 27.191406 -78.132812 26.972656 -76.878906 C 26.417969 -74.863281 26.511719 -72.257812 29.144531 -70.164062 C 30.207031 -69.230469 31.472656 -68.667969 32.875 -68.496094 C 35.257812 -68.082031 39.027344 -68.992188 42.359375 -70.527344 C 45.691406 -72.0625 48.628906 -74.074219 49.515625 -76.03125 C 50.523438 -78.308594 50.285156 -80.871094 49.152344 -82.976562 C 48.007812 -85.015625 45.898438 -86.605469 43.515625 -87.019531 Z M 8.773438 -8.152344 C 8.269531 -5.242188 8.945312 -2.46875 10.476562 -0.292969 C 11.996094 1.945312 14.378906 3.519531 17.289062 4.023438 C 20.132812 4.515625 22.910156 3.839844 25.160156 2.253906 C 27.332031 0.722656 28.972656 -1.648438 29.476562 -4.558594 L 37.339844 -49.867188 C 37.847656 -52.777344 37.101562 -55.5625 35.574219 -57.738281 C 33.976562 -59.921875 31.601562 -61.5625 28.757812 -62.054688 C 25.847656 -62.558594 23.0625 -61.816406 20.890625 -60.285156 C 18.714844 -58.753906 17.144531 -56.371094 16.636719 -53.460938 Z M 8.773438 -8.152344 "/></g></g></g><g fill="#ff9000" fill-opacity="1"><g transform="translate(240.321767, 208.517154)"><g><path d="M 62.394531 -47.148438 C 59.042969 -47.625 56.382812 -45.78125 54.445312 -41.78125 L 54.363281 -41.621094 C 51.089844 -46.253906 46.011719 -49.429688 39.304688 -50.386719 C 31.703125 -51.472656 24.269531 -49.34375 18.460938 -44.984375 C 12.648438 -40.625 8.527344 -34.140625 7.433594 -26.484375 C 6.339844 -18.828125 8.472656 -11.394531 12.839844 -5.636719 C 17.207031 0.121094 23.738281 4.304688 31.335938 5.390625 C 37.933594 6.332031 43.578125 4.742188 47.929688 1.429688 L 48.144531 2.316406 C 49.03125 5.691406 50.84375 8.175781 54.195312 8.65625 C 57.550781 9.132812 59.488281 7.527344 59.96875 4.175781 L 63.097656 -17.734375 L 66.515625 -41.652344 C 66.96875 -44.839844 65.582031 -46.691406 62.394531 -47.148438 Z M 41.558594 -13.851562 C 39.425781 -12.105469 36.679688 -11.242188 33.773438 -11.65625 C 30.867188 -12.070312 28.472656 -13.667969 26.914062 -15.945312 C 25.347656 -18.164062 24.621094 -21.0625 25.039062 -23.96875 C 25.453125 -26.875 26.960938 -29.453125 29.085938 -31.144531 C 31.210938 -32.839844 33.957031 -33.703125 36.863281 -33.285156 C 39.769531 -32.871094 42.164062 -31.273438 43.730469 -29.054688 C 45.292969 -26.835938 46.019531 -23.9375 45.605469 -21.03125 C 45.191406 -18.125 43.679688 -15.546875 41.558594 -13.851562 Z M 41.558594 -13.851562 "/></g></g></g></svg>