<svg xmlns="http://www.w3.org/2000/svg" xmlns:xlink="http://www.w3.org/1999/xlink" width="500" zoomAndPan="magnify" viewBox="0 0 375 374.999991" height="500" preserveAspectRatio="xMidYMid meet" version="1.0"><defs><g/></defs><g fill="#ffffff" fill-opacity="1"><g transform="translate(37.501291, 208.193233)"><g><path d="M 29.183594 -23.8125 C 30.300781 -22.558594 31.152344 -21.617188 31.957031 -20.949219 C 32.765625 -20.277344 33.480469 -19.964844 34.511719 -19.964844 C 36.433594 -19.964844 38 -21.617188 39.835938 -23.8125 L 49.414062 -36.078125 L 49.414062 -6.355469 C 49.414062 -3.847656 50.445312 -2.058594 51.832031 -0.984375 C 53.21875 0.132812 54.921875 0.671875 56.308594 0.671875 C 58.324219 0.671875 60.066406 -0.132812 61.320312 -1.386719 C 62.574219 -2.640625 63.289062 -4.386719 63.289062 -6.355469 L 63.289062 -45.476562 C 63.289062 -46.238281 63.289062 -47.042969 63.335938 -47.9375 C 63.335938 -48.789062 63.289062 -49.683594 63.199219 -50.578125 C 63.023438 -52.324219 62.574219 -54.070312 61.5 -55.367188 C 60.425781 -56.621094 58.726562 -57.472656 56.039062 -57.472656 C 54.070312 -57.472656 52.863281 -57.246094 51.964844 -56.800781 C 51.070312 -56.351562 50.578125 -55.726562 50.175781 -55.054688 L 49.28125 -53.710938 C 48.832031 -53.039062 48.027344 -51.964844 46.910156 -50.535156 C 44.625 -47.667969 40.820312 -43.058594 34.332031 -35.71875 L 17.816406 -55.011719 C 16.695312 -56.21875 15.753906 -56.800781 14.546875 -57.160156 C 13.292969 -57.472656 11.773438 -57.472656 9.398438 -57.472656 C 7.476562 -57.472656 6.3125 -57.160156 5.640625 -56.667969 C 4.921875 -56.128906 4.746094 -55.414062 4.746094 -54.519531 C 4.746094 -53.710938 4.878906 -52.949219 5.101562 -52.234375 C 5.328125 -51.472656 5.414062 -50.714844 5.414062 -49.953125 C 5.460938 -46.503906 5.460938 -42.925781 5.460938 -39.253906 L 5.460938 -28.109375 C 5.460938 -24.347656 5.460938 -20.632812 5.460938 -16.964844 C 5.414062 -13.292969 5.414062 -9.757812 5.414062 -6.355469 C 5.414062 -4.386719 6.175781 -2.640625 7.429688 -1.386719 C 8.683594 -0.132812 10.472656 0.671875 12.441406 0.671875 C 14.414062 0.671875 16.160156 -0.132812 17.410156 -1.386719 C 18.664062 -2.640625 19.425781 -4.386719 19.425781 -6.355469 L 19.425781 -12.800781 C 19.382812 -14.949219 19.382812 -17.234375 19.382812 -19.605469 L 19.382812 -27.257812 C 19.335938 -29.945312 19.335938 -32.898438 19.335938 -36.121094 Z M 29.183594 -23.8125 "/></g></g></g><g fill="#ffffff" fill-opacity="1"><g transform="translate(105.491437, 208.193233)"><g><path d="M 43.6875 -44 C 41 -44 39.121094 -42.253906 38.046875 -38.894531 L 38 -38.761719 C 34.914062 -42.03125 30.570312 -43.953125 25.199219 -43.953125 C 19.113281 -43.953125 13.515625 -41.449219 9.445312 -37.375 C 5.371094 -33.300781 2.863281 -27.75 2.863281 -21.617188 C 2.863281 -15.488281 5.371094 -9.890625 9.445312 -5.863281 C 13.515625 -1.835938 19.113281 0.714844 25.199219 0.714844 C 30.480469 0.714844 34.734375 -1.164062 37.777344 -4.253906 L 38.046875 -3.582031 C 39.121094 -1.03125 40.820312 0.714844 43.507812 0.714844 C 46.191406 0.714844 47.535156 -0.761719 47.535156 -3.445312 L 47.535156 -40.148438 C 47.535156 -42.699219 46.238281 -44 43.6875 -44 Z M 31.0625 -15.53125 C 29.585938 -13.921875 27.527344 -12.9375 25.199219 -12.9375 C 22.871094 -12.9375 20.8125 -13.921875 19.335938 -15.53125 C 17.859375 -17.097656 16.964844 -19.292969 16.964844 -21.617188 C 16.964844 -23.945312 17.859375 -26.140625 19.335938 -27.707031 C 20.8125 -29.273438 22.871094 -30.257812 25.199219 -30.257812 C 27.527344 -30.257812 29.585938 -29.273438 31.0625 -27.707031 C 32.539062 -26.140625 33.4375 -23.945312 33.4375 -21.617188 C 33.4375 -19.292969 32.539062 -17.097656 31.0625 -15.53125 Z M 31.0625 -15.53125 "/></g></g></g><g fill="#ffffff" fill-opacity="1"><g transform="translate(158.531812, 208.193233)"><g><path d="M 33.792969 -42.34375 C 31.421875 -43.507812 28.378906 -43.863281 25.917969 -43.820312 C 23.363281 -43.597656 21.039062 -42.746094 18.933594 -41.671875 C 17.1875 -40.777344 15.710938 -39.613281 14.457031 -38.449219 L 14.324219 -38.851562 C 13.113281 -42.476562 11.414062 -43.953125 8.726562 -43.953125 C 6.132812 -43.953125 4.835938 -42.65625 4.835938 -40.105469 L 4.835938 -6.355469 C 4.835938 -4.386719 5.59375 -2.640625 6.847656 -1.386719 C 8.101562 -0.0898438 9.890625 0.671875 11.863281 0.671875 C 13.785156 0.671875 15.53125 -0.0898438 16.828125 -1.386719 C 18.082031 -2.640625 18.890625 -4.386719 18.890625 -6.355469 L 18.890625 -22.199219 C 19.203125 -25.917969 20.679688 -28.871094 23.542969 -29.898438 C 24.664062 -30.214844 25.78125 -30.300781 26.902344 -30.167969 C 28.019531 -29.988281 29.140625 -29.898438 30.214844 -29.855469 C 32.539062 -29.855469 34.152344 -30.300781 35.585938 -31.421875 C 36.972656 -32.539062 37.957031 -34.332031 37.957031 -36.300781 C 37.957031 -39.210938 36.167969 -41.179688 33.792969 -42.34375 Z M 33.792969 -42.34375 "/></g></g></g><g fill="#ffffff" fill-opacity="1"><g transform="translate(198.412799, 208.193233)"><g><path d="M 41.359375 -37.417969 C 39.613281 -39.34375 37.152344 -41 34.285156 -42.164062 C 31.421875 -43.328125 28.242188 -43.953125 25.019531 -43.953125 C 18.890625 -43.953125 13.339844 -41.449219 9.308594 -37.375 C 5.28125 -33.300781 2.730469 -27.75 2.730469 -21.617188 C 2.730469 -15.488281 5.28125 -9.890625 9.308594 -5.863281 C 13.339844 -1.835938 18.890625 0.714844 25.019531 0.714844 C 30.4375 0.714844 35.136719 -0.714844 38.449219 -2.910156 C 41.761719 -5.058594 43.730469 -7.921875 43.730469 -10.921875 C 43.730469 -13.605469 42.433594 -15.578125 40.464844 -16.605469 C 38.359375 -17.636719 35.898438 -17.367188 34.0625 -16.425781 C 32.40625 -15.21875 30.480469 -14.144531 28.378906 -13.742188 C 25.46875 -13.070312 22.558594 -13.429688 20.410156 -14.769531 C 18.261719 -16.113281 16.828125 -18.394531 16.828125 -21.617188 C 16.828125 -24.976562 18.394531 -27.257812 20.589844 -28.558594 C 22.78125 -29.808594 25.691406 -30.078125 28.378906 -29.496094 C 29.855469 -29.003906 31.242188 -28.378906 32.628906 -27.707031 C 34.019531 -27.035156 35.40625 -26.453125 36.835938 -26.09375 C 38.808594 -25.917969 40.550781 -26.632812 41.761719 -27.796875 C 42.96875 -28.960938 43.6875 -30.617188 43.6875 -32.40625 C 43.6875 -34.152344 42.789062 -35.851562 41.359375 -37.417969 Z M 41.359375 -37.417969 "/></g></g></g></svg>