<svg xmlns="http://www.w3.org/2000/svg" xmlns:xlink="http://www.w3.org/1999/xlink" width="500" zoomAndPan="magnify" viewBox="0 0 375 374.999991" height="500" preserveAspectRatio="xMidYMid meet" version="1.0"><defs><g/></defs><g fill="#ff9000" fill-opacity="1"><g transform="translate(194.560927, 216.591303)"><g><path d="M 43.515625 -87.019531 C 41.597656 -87.351562 39.191406 -86.816406 36.820312 -85.730469 C 34.453125 -84.640625 32.121094 -83 30.347656 -81.402344 C 28.570312 -79.800781 27.191406 -78.132812 26.972656 -76.878906 C 26.417969 -74.863281 26.511719 -72.257812 29.144531 -70.164062 C 30.207031 -69.230469 31.472656 -68.667969 32.875 -68.496094 C 35.257812 -68.082031 39.027344 -68.992188 42.359375 -70.527344 C 45.691406 -72.0625 48.628906 -74.074219 49.515625 -76.03125 C 50.523438 -78.308594 50.285156 -80.871094 49.152344 -82.976562 C 48.007812 -85.015625 45.898438 -86.605469 43.515625 -87.019531 Z M 8.773438 -8.152344 C 8.269531 -5.242188 8.945312 -2.46875 10.476562 -0.292969 C 11.996094 1.945312 14.378906 3.519531 17.289062 4.023438 C 20.132812 4.515625 22.910156 3.839844 25.160156 2.253906 C 27.332031 0.722656 28.972656 -1.648438 29.476562 -4.558594 L 37.339844 -49.867188 C 37.847656 -52.777344 37.101562 -55.5625 35.574219 -57.738281 C 33.976562 -59.921875 31.601562 -61.5625 28.757812 -62.054688 C 25.847656 -62.558594 23.0625 -61.816406 20.890625 -60.285156 C 18.714844 -58.753906 17.144531 -56.371094 16.636719 -53.460938 Z M 8.773438 -8.152344 "/></g></g></g><g fill="#ff9000" fill-opacity="1"><g transform="translate(136.082833, 208.350515)"><g><path d="M 62.394531 -47.148438 C 59.042969 -47.625 56.382812 -45.78125 54.445312 -41.78125 L 54.363281 -41.621094 C 51.089844 -46.253906 46.011719 -49.429688 39.304688 -50.386719 C 31.703125 -51.472656 24.269531 -49.34375 18.460938 -44.984375 C 12.648438 -40.625 8.527344 -34.140625 7.433594 -26.484375 C 6.339844 -18.828125 8.472656 -11.394531 12.839844 -5.636719 C 17.207031 0.121094 23.738281 4.304688 31.335938 5.390625 C 37.933594 6.332031 43.578125 4.742188 47.929688 1.429688 L 48.144531 2.316406 C 49.03125 5.691406 50.84375 8.175781 54.195312 8.65625 C 57.550781 9.132812 59.488281 7.527344 59.96875 4.175781 L 63.097656 -17.734375 L 66.515625 -41.652344 C 66.96875 -44.839844 65.582031 -46.691406 62.394531 -47.148438 Z M 41.558594 -13.851562 C 39.425781 -12.105469 36.679688 -11.242188 33.773438 -11.65625 C 30.867188 -12.070312 28.472656 -13.667969 26.914062 -15.945312 C 25.347656 -18.164062 24.621094 -21.0625 25.039062 -23.96875 C 25.453125 -26.875 26.960938 -29.453125 29.085938 -31.144531 C 31.210938 -32.839844 33.957031 -33.703125 36.863281 -33.285156 C 39.769531 -32.871094 42.164062 -31.273438 43.730469 -29.054688 C 45.292969 -26.835938 46.019531 -23.9375 45.605469 -21.03125 C 45.191406 -18.125 43.679688 -15.546875 41.558594 -13.851562 Z M 41.558594 -13.851562 "/></g></g></g></svg>