<svg xmlns="http://www.w3.org/2000/svg" xmlns:xlink="http://www.w3.org/1999/xlink" width="500" zoomAndPan="magnify" viewBox="0 0 375 374.999991" height="500" preserveAspectRatio="xMidYMid meet" version="1.0"><defs><clipPath id="35540bd419"><path d="M 97.839844 166.375 L 259.839844 166.375 L 259.839844 208.375 L 97.839844 208.375 Z M 97.839844 166.375 " clip-rule="nonzero"/></clipPath></defs><g clip-path="url(#35540bd419)"><path fill="#444444" d="M 100.433594 179.550781 C 100.484375 179.3125 100.53125 179.082031 100.597656 178.851562 L 100.800781 178.175781 C 100.910156 177.734375 101.109375 177.3125 101.246094 176.902344 C 101.609375 176.089844 101.992188 175.332031 102.453125 174.628906 C 102.929688 173.9375 103.425781 173.273438 104.015625 172.6875 C 105.175781 171.511719 106.542969 170.535156 108.160156 169.816406 L 108.464844 169.675781 L 108.777344 169.554688 C 108.992188 169.480469 109.203125 169.390625 109.421875 169.3125 C 109.863281 169.195312 110.316406 169.015625 110.789062 168.910156 C 111.265625 168.789062 111.753906 168.699219 112.269531 168.613281 C 112.273438 168.613281 112.28125 168.609375 112.285156 168.609375 C 112.890625 168.515625 113.054688 167.707031 112.511719 167.414062 C 112.003906 167.136719 111.457031 166.917969 110.890625 166.75 C 110.328125 166.578125 109.746094 166.507812 109.152344 166.429688 C 108.851562 166.394531 108.554688 166.40625 108.253906 166.402344 L 107.800781 166.402344 C 107.648438 166.40625 107.5 166.429688 107.347656 166.445312 C 104.921875 166.667969 102.5625 167.84375 100.835938 169.625 C 99.960938 170.507812 99.273438 171.5625 98.746094 172.671875 C 98.234375 173.796875 97.945312 175.003906 97.84375 176.203125 C 97.832031 176.503906 97.839844 176.808594 97.839844 177.109375 C 97.84375 177.257812 97.839844 177.40625 97.851562 177.554688 C 97.863281 177.703125 97.886719 177.851562 97.90625 178 C 97.953125 178.292969 97.980469 178.582031 98.042969 178.871094 C 98.109375 179.15625 98.183594 179.441406 98.273438 179.714844 C 98.421875 180.164062 98.605469 180.601562 98.824219 181.011719 C 99.160156 181.644531 100.117188 181.488281 100.214844 180.777344 C 100.273438 180.355469 100.34375 179.949219 100.433594 179.550781 Z M 257.445312 180.777344 C 257.542969 181.488281 258.5 181.644531 258.835938 181.011719 C 259.054688 180.601562 259.238281 180.164062 259.386719 179.714844 C 259.476562 179.441406 259.550781 179.15625 259.617188 178.871094 C 259.679688 178.582031 259.707031 178.292969 259.753906 178 C 259.773438 177.851562 259.796875 177.703125 259.808594 177.554688 C 259.820312 177.40625 259.816406 177.257812 259.820312 177.109375 C 259.820312 176.808594 259.828125 176.503906 259.816406 176.203125 C 259.714844 175.003906 259.425781 173.796875 258.914062 172.671875 C 258.386719 171.5625 257.699219 170.507812 256.824219 169.625 C 255.097656 167.84375 252.738281 166.667969 250.3125 166.445312 C 250.160156 166.429688 250.011719 166.40625 249.859375 166.402344 L 249.40625 166.402344 C 249.105469 166.40625 248.808594 166.394531 248.507812 166.429688 C 247.914062 166.507812 247.332031 166.578125 246.769531 166.75 C 246.203125 166.917969 245.65625 167.136719 245.148438 167.414062 C 244.609375 167.707031 244.769531 168.515625 245.375 168.609375 C 245.378906 168.609375 245.386719 168.613281 245.390625 168.613281 C 245.90625 168.699219 246.398438 168.789062 246.871094 168.910156 C 247.34375 169.015625 247.796875 169.195312 248.238281 169.3125 C 248.457031 169.390625 248.671875 169.480469 248.882812 169.554688 L 249.195312 169.675781 L 249.5 169.816406 C 251.117188 170.535156 252.484375 171.511719 253.644531 172.6875 C 254.234375 173.273438 254.726562 173.9375 255.207031 174.628906 C 255.671875 175.332031 256.050781 176.089844 256.414062 176.902344 C 256.550781 177.3125 256.753906 177.734375 256.859375 178.175781 L 257.0625 178.851562 C 257.128906 179.082031 257.175781 179.3125 257.226562 179.550781 C 257.316406 179.949219 257.386719 180.355469 257.445312 180.777344 Z M 178.234375 208.363281 C 165.386719 208.363281 152.625 205.746094 140.304688 200.582031 C 128.382812 195.582031 116.84375 188.191406 106.007812 178.613281 C 105.1875 177.886719 105.113281 176.636719 105.839844 175.820312 C 106.570312 175.003906 107.824219 174.929688 108.644531 175.65625 C 129.921875 194.46875 153.984375 204.410156 178.234375 204.410156 C 202.691406 204.410156 226.9375 194.304688 248.351562 175.1875 C 249.167969 174.457031 250.421875 174.527344 251.15625 175.339844 C 251.890625 176.148438 251.820312 177.402344 251.003906 178.128906 C 240.101562 187.863281 228.484375 195.371094 216.46875 200.453125 C 204.050781 205.703125 191.1875 208.363281 178.234375 208.363281 " fill-opacity="1" fill-rule="nonzero"/></g></svg>