<svg xmlns="http://www.w3.org/2000/svg" xmlns:xlink="http://www.w3.org/1999/xlink" width="500" zoomAndPan="magnify" viewBox="0 0 375 374.999991" height="500" preserveAspectRatio="xMidYMid meet" version="1.0"><defs><g/><clipPath id="45b18eb8e1"><path d="M 105.785156 216.75 L 241.535156 216.75 L 241.535156 252 L 105.785156 252 Z M 105.785156 216.75 " clip-rule="nonzero"/></clipPath></defs><rect x="-37.5" width="450" fill="#ffffff" y="-37.499999" height="449.999989" fill-opacity="1"/><rect x="-37.5" width="450" fill="#ffffff" y="-37.499999" height="449.999989" fill-opacity="1"/><g fill="#444444" fill-opacity="1"><g transform="translate(117.663895, 214.740118)"><g><path d="M 48.113281 -39.257812 C 49.960938 -37.191406 51.363281 -35.644531 52.691406 -34.535156 C 54.019531 -33.429688 55.199219 -32.914062 56.898438 -32.914062 C 60.070312 -32.914062 62.652344 -35.644531 65.679688 -39.257812 L 81.472656 -59.480469 L 81.472656 -10.480469 C 81.472656 -6.347656 83.167969 -3.394531 85.457031 -1.625 C 87.742188 0.222656 90.546875 1.105469 92.835938 1.105469 C 96.15625 1.105469 99.035156 -0.222656 101.101562 -2.289062 C 103.167969 -4.355469 104.347656 -7.230469 104.347656 -10.480469 L 104.347656 -74.976562 C 104.347656 -76.230469 104.347656 -77.558594 104.421875 -79.035156 C 104.421875 -80.4375 104.347656 -81.914062 104.199219 -83.390625 C 103.90625 -86.265625 103.167969 -89.144531 101.394531 -91.285156 C 99.625 -93.351562 96.820312 -94.753906 92.390625 -94.753906 C 89.144531 -94.753906 87.152344 -94.386719 85.675781 -93.648438 C 84.199219 -92.910156 83.390625 -91.875 82.726562 -90.769531 L 81.25 -88.554688 C 80.511719 -87.449219 79.183594 -85.675781 77.339844 -83.316406 C 73.574219 -78.59375 67.300781 -70.992188 56.601562 -58.890625 L 29.371094 -90.695312 C 27.527344 -92.6875 25.976562 -93.648438 23.984375 -94.238281 C 21.917969 -94.753906 19.410156 -94.753906 15.496094 -94.753906 C 12.324219 -94.753906 10.40625 -94.238281 9.296875 -93.425781 C 8.117188 -92.539062 7.824219 -91.359375 7.824219 -89.882812 C 7.824219 -88.554688 8.042969 -87.300781 8.414062 -86.121094 C 8.78125 -84.867188 8.929688 -83.609375 8.929688 -82.355469 C 9.003906 -76.675781 9.003906 -70.769531 9.003906 -64.71875 L 9.003906 -46.34375 C 9.003906 -40.144531 9.003906 -34.019531 9.003906 -27.96875 C 8.929688 -21.917969 8.929688 -16.085938 8.929688 -10.480469 C 8.929688 -7.230469 10.183594 -4.355469 12.25 -2.289062 C 14.316406 -0.222656 17.269531 1.105469 20.515625 1.105469 C 23.761719 1.105469 26.640625 -0.222656 28.707031 -2.289062 C 30.773438 -4.355469 32.027344 -7.230469 32.027344 -10.480469 L 32.027344 -21.105469 C 31.953125 -24.648438 31.953125 -28.410156 31.953125 -32.324219 L 31.953125 -44.941406 C 31.878906 -49.371094 31.878906 -54.238281 31.878906 -59.554688 Z M 48.113281 -39.257812 "/></g></g></g><g clip-path="url(#45b18eb8e1)"><path fill="#444444" d="M 107.957031 227.808594 C 108 227.609375 108.042969 227.414062 108.097656 227.222656 L 108.265625 226.65625 C 108.355469 226.285156 108.523438 225.933594 108.640625 225.585938 C 108.945312 224.90625 109.265625 224.269531 109.652344 223.679688 C 110.050781 223.097656 110.46875 222.542969 110.960938 222.050781 C 111.933594 221.0625 113.078125 220.242188 114.433594 219.640625 L 114.6875 219.519531 L 114.953125 219.421875 C 115.128906 219.359375 115.308594 219.28125 115.492188 219.214844 C 115.859375 219.117188 116.238281 218.96875 116.636719 218.882812 C 117.035156 218.78125 117.445312 218.703125 117.878906 218.628906 C 117.882812 218.628906 117.886719 218.628906 117.890625 218.628906 C 118.398438 218.546875 118.535156 217.867188 118.082031 217.621094 C 117.65625 217.390625 117.195312 217.207031 116.722656 217.066406 C 116.25 216.921875 115.761719 216.863281 115.265625 216.796875 C 115.015625 216.765625 114.765625 216.777344 114.511719 216.773438 L 114.132812 216.773438 C 114.003906 216.777344 113.878906 216.796875 113.753906 216.808594 C 111.722656 216.996094 109.742188 217.984375 108.296875 219.476562 C 107.5625 220.21875 106.988281 221.105469 106.546875 222.039062 C 106.117188 222.980469 105.875 223.992188 105.789062 225 C 105.777344 225.253906 105.785156 225.507812 105.785156 225.761719 C 105.789062 225.886719 105.785156 226.007812 105.796875 226.132812 C 105.804688 226.257812 105.828125 226.382812 105.84375 226.507812 C 105.878906 226.753906 105.902344 227 105.957031 227.238281 C 106.011719 227.480469 106.074219 227.71875 106.148438 227.949219 C 106.273438 228.324219 106.425781 228.691406 106.609375 229.035156 C 106.890625 229.566406 107.695312 229.4375 107.777344 228.839844 C 107.824219 228.484375 107.886719 228.144531 107.957031 227.808594 Z M 239.527344 228.839844 C 239.609375 229.4375 240.414062 229.566406 240.695312 229.035156 C 240.878906 228.691406 241.03125 228.324219 241.15625 227.949219 C 241.234375 227.71875 241.292969 227.480469 241.351562 227.238281 C 241.402344 227 241.425781 226.753906 241.464844 226.507812 C 241.480469 226.382812 241.5 226.257812 241.511719 226.132812 C 241.519531 226.007812 241.515625 225.886719 241.519531 225.761719 C 241.519531 225.507812 241.527344 225.253906 241.515625 225 C 241.429688 223.992188 241.1875 222.980469 240.761719 222.039062 C 240.320312 221.105469 239.742188 220.21875 239.011719 219.476562 C 237.5625 217.984375 235.582031 216.996094 233.550781 216.808594 C 233.425781 216.796875 233.300781 216.777344 233.171875 216.773438 L 232.792969 216.773438 C 232.539062 216.777344 232.292969 216.765625 232.042969 216.796875 C 231.542969 216.863281 231.054688 216.921875 230.582031 217.066406 C 230.109375 217.207031 229.652344 217.390625 229.222656 217.621094 C 228.773438 217.867188 228.90625 218.546875 229.414062 218.628906 C 229.417969 218.628906 229.425781 218.628906 229.429688 218.628906 C 229.859375 218.703125 230.269531 218.78125 230.667969 218.882812 C 231.066406 218.96875 231.445312 219.117188 231.8125 219.214844 C 231.996094 219.28125 232.175781 219.359375 232.351562 219.421875 L 232.617188 219.519531 L 232.871094 219.640625 C 234.226562 220.242188 235.371094 221.0625 236.34375 222.050781 C 236.835938 222.542969 237.253906 223.097656 237.65625 223.679688 C 238.042969 224.269531 238.359375 224.90625 238.664062 225.585938 C 238.78125 225.933594 238.949219 226.285156 239.039062 226.65625 L 239.210938 227.222656 C 239.265625 227.414062 239.304688 227.609375 239.347656 227.808594 C 239.421875 228.144531 239.480469 228.484375 239.527344 228.839844 Z M 173.152344 251.992188 C 162.386719 251.992188 151.695312 249.796875 141.371094 245.460938 C 131.378906 241.265625 121.710938 235.0625 112.628906 227.023438 C 111.941406 226.414062 111.878906 225.363281 112.492188 224.679688 C 113.101562 223.996094 114.152344 223.933594 114.839844 224.539062 C 132.671875 240.332031 152.835938 248.675781 173.152344 248.675781 C 193.644531 248.675781 213.964844 240.191406 231.910156 224.148438 C 232.59375 223.535156 233.644531 223.59375 234.257812 224.273438 C 234.875 224.957031 234.816406 226.007812 234.132812 226.617188 C 224.996094 234.785156 215.261719 241.089844 205.191406 245.351562 C 194.789062 249.761719 184.007812 251.992188 173.152344 251.992188 " fill-opacity="1" fill-rule="nonzero"/></g><g fill="#ff5733" fill-opacity="1"><g transform="translate(186.269576, 205.60095)"><g><path d="M 79.851562 -106.066406 C 77.359375 -106.988281 73.992188 -106.863281 70.542969 -105.984375 C 67.097656 -105.109375 63.566406 -103.484375 60.789062 -101.773438 C 58.011719 -100.066406 55.746094 -98.167969 55.144531 -96.53125 C 53.902344 -93.964844 53.386719 -90.445312 56.40625 -86.988281 C 57.605469 -85.46875 59.164062 -84.40625 61 -83.828125 C 64.097656 -82.683594 69.378906 -82.980469 74.230469 -84.21875 C 79.082031 -85.457031 83.519531 -87.429688 85.191406 -89.839844 C 87.105469 -92.648438 87.417969 -96.148438 86.417969 -99.25 C 85.382812 -102.269531 82.945312 -104.925781 79.851562 -106.066406 Z M 13.785156 -8.78125 C 12.390625 -4.996094 12.613281 -1.105469 14.132812 2.1875 C 15.621094 5.566406 18.433594 8.265625 22.214844 9.660156 C 25.910156 11.023438 29.800781 10.800781 33.210938 9.226562 C 36.507812 7.707031 39.289062 4.925781 40.683594 1.144531 L 62.40625 -57.726562 C 63.800781 -61.507812 63.492188 -65.429688 61.972656 -68.722656 C 60.367188 -72.050781 57.585938 -74.835938 53.890625 -76.199219 C 50.109375 -77.59375 46.1875 -77.28125 42.890625 -75.765625 C 39.597656 -74.246094 36.902344 -71.433594 35.503906 -67.652344 Z M 13.785156 -8.78125 "/></g></g></g></svg>