<svg width="136" height="122" viewBox="0 0 136 122" fill="none" xmlns="http://www.w3.org/2000/svg">
<path d="M126.458 0.130256C123.9 -0.312452 120.692 0.40109 117.531 1.84901C114.374 3.30213 111.265 5.48963 108.9 7.61984C106.531 9.75526 104.692 11.9792 104.4 13.6511C103.661 16.3386 103.786 19.8125 107.296 22.6042C108.713 23.849 110.4 24.599 112.27 24.8282C115.447 25.3803 120.473 24.1667 124.916 22.1198C129.359 20.073 133.275 17.3907 134.458 14.7813C135.801 11.7448 135.484 8.32817 133.973 5.52088C132.447 2.80213 129.635 0.682338 126.458 0.130256ZM80.1347 105.287C79.4628 109.167 80.3639 112.865 82.4056 115.766C84.4316 118.75 87.6087 120.849 91.4889 121.521C95.2806 122.177 98.9837 121.276 101.984 119.162C104.88 117.12 107.067 113.958 107.739 110.078L118.223 49.6667C118.9 45.7865 117.906 42.073 115.869 39.1719C113.739 36.2605 110.572 34.073 106.781 33.4167C102.9 32.7448 99.1868 33.7344 96.291 35.7761C93.3899 37.8178 91.2962 40.9948 90.6191 44.875L80.1347 105.287Z" fill="#FF9000"/>
<path d="M73.6587 42.304C69.19 41.6685 65.6431 44.1269 63.0598 49.4602L62.9504 49.6738C58.5858 43.4967 51.815 39.2623 42.8723 37.9863C32.7368 36.5383 22.8254 39.3769 15.0806 45.1894C7.33059 51.0019 1.8358 59.6477 0.37747 69.856C-1.08086 80.0644 1.76289 89.9758 7.5858 97.6529C13.4087 105.33 22.1171 110.908 32.2473 112.356C41.0441 113.611 48.5702 111.491 54.3723 107.075L54.6587 108.257C55.841 112.757 58.2577 116.07 62.7264 116.71C67.2004 117.346 69.7837 115.205 70.4243 110.736L74.5962 81.5227L79.1535 49.6321C79.7577 45.3821 77.9087 42.9133 73.6587 42.304ZM45.8775 86.6998C43.0337 89.0279 39.3723 90.179 35.4973 89.6269C31.6223 89.0748 28.4296 86.9446 26.3514 83.9081C24.2629 80.9498 23.2941 77.0852 23.8514 73.2102C24.4035 69.3352 26.4139 65.8977 29.2473 63.6425C32.0806 61.3821 35.7421 60.231 39.6171 60.7883C43.4921 61.3404 46.6848 63.4706 48.7733 66.429C50.8566 69.3873 51.8254 73.2519 51.2733 77.1269C50.7212 81.0019 48.7056 84.4394 45.8775 86.6998Z" fill="#FF9000"/>
</svg>
