<svg xmlns="http://www.w3.org/2000/svg" xmlns:xlink="http://www.w3.org/1999/xlink" width="500" zoomAndPan="magnify" viewBox="0 0 375 374.999991" height="500" preserveAspectRatio="xMidYMid meet" version="1.0"><defs><g/><clipPath id="a464adacdf"><path d="M 110.921875 226.90625 L 272.921875 226.90625 L 272.921875 268.90625 L 110.921875 268.90625 Z M 110.921875 226.90625 " clip-rule="nonzero"/></clipPath></defs><rect x="-37.5" width="450" fill="#ffffff" y="-37.499999" height="449.999989" fill-opacity="1"/><rect x="-37.5" width="450" fill="#ffffff" y="-37.499999" height="449.999989" fill-opacity="1"/><rect x="-37.5" width="450" fill="#444444" y="-37.499999" height="449.999989" fill-opacity="1"/><g clip-path="url(#a464adacdf)"><path fill="#ffffff" d="M 113.511719 240.082031 C 113.566406 239.84375 113.613281 239.613281 113.679688 239.382812 L 113.878906 238.707031 C 113.988281 238.265625 114.191406 237.84375 114.328125 237.433594 C 114.691406 236.621094 115.074219 235.863281 115.535156 235.160156 C 116.011719 234.46875 116.507812 233.804688 117.09375 233.21875 C 118.257812 232.042969 119.625 231.066406 121.242188 230.347656 L 121.546875 230.207031 L 121.859375 230.085938 C 122.070312 230.011719 122.285156 229.921875 122.503906 229.84375 C 122.941406 229.726562 123.398438 229.546875 123.871094 229.441406 C 124.347656 229.324219 124.835938 229.230469 125.351562 229.144531 C 125.355469 229.144531 125.359375 229.140625 125.367188 229.140625 C 125.972656 229.046875 126.132812 228.238281 125.59375 227.945312 C 125.085938 227.667969 124.539062 227.449219 123.972656 227.28125 C 123.410156 227.109375 122.828125 227.039062 122.230469 226.960938 C 121.933594 226.925781 121.636719 226.9375 121.335938 226.933594 L 120.882812 226.933594 C 120.730469 226.9375 120.582031 226.960938 120.429688 226.976562 C 118.003906 227.199219 115.644531 228.375 113.914062 230.15625 C 113.042969 231.039062 112.355469 232.09375 111.828125 233.203125 C 111.316406 234.328125 111.027344 235.535156 110.925781 236.734375 C 110.914062 237.035156 110.921875 237.339844 110.921875 237.640625 C 110.925781 237.789062 110.921875 237.9375 110.933594 238.085938 C 110.945312 238.234375 110.96875 238.382812 110.988281 238.53125 C 111.035156 238.824219 111.058594 239.113281 111.125 239.402344 C 111.191406 239.6875 111.265625 239.972656 111.355469 240.246094 C 111.503906 240.695312 111.6875 241.132812 111.90625 241.542969 C 112.238281 242.175781 113.199219 242.019531 113.296875 241.308594 C 113.355469 240.886719 113.425781 240.480469 113.511719 240.082031 Z M 270.527344 241.308594 C 270.625 242.019531 271.582031 242.175781 271.917969 241.542969 C 272.136719 241.132812 272.320312 240.695312 272.46875 240.246094 C 272.558594 239.972656 272.632812 239.6875 272.699219 239.402344 C 272.761719 239.113281 272.789062 238.824219 272.835938 238.53125 C 272.851562 238.382812 272.878906 238.234375 272.890625 238.085938 C 272.902344 237.9375 272.898438 237.789062 272.902344 237.640625 C 272.902344 237.339844 272.910156 237.035156 272.898438 236.734375 C 272.796875 235.535156 272.507812 234.328125 271.996094 233.203125 C 271.46875 232.09375 270.78125 231.039062 269.90625 230.15625 C 268.179688 228.375 265.816406 227.199219 263.394531 226.976562 C 263.242188 226.960938 263.09375 226.9375 262.941406 226.933594 L 262.488281 226.933594 C 262.1875 226.9375 261.890625 226.925781 261.589844 226.960938 C 260.996094 227.039062 260.414062 227.109375 259.851562 227.28125 C 259.285156 227.449219 258.738281 227.667969 258.226562 227.945312 C 257.6875 228.238281 257.851562 229.046875 258.457031 229.140625 C 258.460938 229.140625 258.46875 229.144531 258.472656 229.144531 C 258.988281 229.230469 259.476562 229.324219 259.953125 229.441406 C 260.425781 229.546875 260.878906 229.726562 261.320312 229.84375 C 261.539062 229.921875 261.753906 230.011719 261.960938 230.085938 L 262.277344 230.207031 L 262.582031 230.347656 C 264.199219 231.066406 265.566406 232.042969 266.726562 233.21875 C 267.3125 233.804688 267.808594 234.46875 268.289062 235.160156 C 268.753906 235.863281 269.132812 236.621094 269.496094 237.433594 C 269.632812 237.84375 269.832031 238.265625 269.941406 238.707031 L 270.144531 239.382812 C 270.210938 239.613281 270.257812 239.84375 270.308594 240.082031 C 270.394531 240.480469 270.464844 240.886719 270.527344 241.308594 Z M 191.316406 268.894531 C 178.46875 268.894531 165.707031 266.277344 153.386719 261.113281 C 141.464844 256.113281 129.925781 248.722656 119.085938 239.144531 C 118.265625 238.417969 118.195312 237.167969 118.921875 236.351562 C 119.652344 235.535156 120.90625 235.460938 121.726562 236.1875 C 143.003906 255 167.066406 264.941406 191.316406 264.941406 C 215.769531 264.941406 240.015625 254.835938 261.433594 235.71875 C 262.25 234.988281 263.503906 235.058594 264.238281 235.871094 C 264.972656 236.679688 264.902344 237.933594 264.085938 238.660156 C 253.183594 248.394531 241.566406 255.902344 229.550781 260.984375 C 217.132812 266.234375 204.269531 268.894531 191.316406 268.894531 " fill-opacity="1" fill-rule="nonzero"/></g><g fill="#ffffff" fill-opacity="1"><g transform="translate(37.501291, 208.193233)"><g><path d="M 29.183594 -23.8125 C 30.300781 -22.558594 31.152344 -21.617188 31.957031 -20.949219 C 32.765625 -20.277344 33.480469 -19.964844 34.511719 -19.964844 C 36.433594 -19.964844 38 -21.617188 39.835938 -23.8125 L 49.414062 -36.078125 L 49.414062 -6.355469 C 49.414062 -3.847656 50.445312 -2.058594 51.832031 -0.984375 C 53.21875 0.132812 54.921875 0.671875 56.308594 0.671875 C 58.324219 0.671875 60.066406 -0.132812 61.320312 -1.386719 C 62.574219 -2.640625 63.289062 -4.386719 63.289062 -6.355469 L 63.289062 -45.476562 C 63.289062 -46.238281 63.289062 -47.042969 63.335938 -47.9375 C 63.335938 -48.789062 63.289062 -49.683594 63.199219 -50.578125 C 63.023438 -52.324219 62.574219 -54.070312 61.5 -55.367188 C 60.425781 -56.621094 58.726562 -57.472656 56.039062 -57.472656 C 54.070312 -57.472656 52.863281 -57.246094 51.964844 -56.800781 C 51.070312 -56.351562 50.578125 -55.726562 50.175781 -55.054688 L 49.28125 -53.710938 C 48.832031 -53.039062 48.027344 -51.964844 46.910156 -50.535156 C 44.625 -47.667969 40.820312 -43.058594 34.332031 -35.71875 L 17.816406 -55.011719 C 16.695312 -56.21875 15.753906 -56.800781 14.546875 -57.160156 C 13.292969 -57.472656 11.773438 -57.472656 9.398438 -57.472656 C 7.476562 -57.472656 6.3125 -57.160156 5.640625 -56.667969 C 4.921875 -56.128906 4.746094 -55.414062 4.746094 -54.519531 C 4.746094 -53.710938 4.878906 -52.949219 5.101562 -52.234375 C 5.328125 -51.472656 5.414062 -50.714844 5.414062 -49.953125 C 5.460938 -46.503906 5.460938 -42.925781 5.460938 -39.253906 L 5.460938 -28.109375 C 5.460938 -24.347656 5.460938 -20.632812 5.460938 -16.964844 C 5.414062 -13.292969 5.414062 -9.757812 5.414062 -6.355469 C 5.414062 -4.386719 6.175781 -2.640625 7.429688 -1.386719 C 8.683594 -0.132812 10.472656 0.671875 12.441406 0.671875 C 14.414062 0.671875 16.160156 -0.132812 17.410156 -1.386719 C 18.664062 -2.640625 19.425781 -4.386719 19.425781 -6.355469 L 19.425781 -12.800781 C 19.382812 -14.949219 19.382812 -17.234375 19.382812 -19.605469 L 19.382812 -27.257812 C 19.335938 -29.945312 19.335938 -32.898438 19.335938 -36.121094 Z M 29.183594 -23.8125 "/></g></g></g><g fill="#ffffff" fill-opacity="1"><g transform="translate(105.491437, 208.193233)"><g><path d="M 43.6875 -44 C 41 -44 39.121094 -42.253906 38.046875 -38.894531 L 38 -38.761719 C 34.914062 -42.03125 30.570312 -43.953125 25.199219 -43.953125 C 19.113281 -43.953125 13.515625 -41.449219 9.445312 -37.375 C 5.371094 -33.300781 2.863281 -27.75 2.863281 -21.617188 C 2.863281 -15.488281 5.371094 -9.890625 9.445312 -5.863281 C 13.515625 -1.835938 19.113281 0.714844 25.199219 0.714844 C 30.480469 0.714844 34.734375 -1.164062 37.777344 -4.253906 L 38.046875 -3.582031 C 39.121094 -1.03125 40.820312 0.714844 43.507812 0.714844 C 46.191406 0.714844 47.535156 -0.761719 47.535156 -3.445312 L 47.535156 -40.148438 C 47.535156 -42.699219 46.238281 -44 43.6875 -44 Z M 31.0625 -15.53125 C 29.585938 -13.921875 27.527344 -12.9375 25.199219 -12.9375 C 22.871094 -12.9375 20.8125 -13.921875 19.335938 -15.53125 C 17.859375 -17.097656 16.964844 -19.292969 16.964844 -21.617188 C 16.964844 -23.945312 17.859375 -26.140625 19.335938 -27.707031 C 20.8125 -29.273438 22.871094 -30.257812 25.199219 -30.257812 C 27.527344 -30.257812 29.585938 -29.273438 31.0625 -27.707031 C 32.539062 -26.140625 33.4375 -23.945312 33.4375 -21.617188 C 33.4375 -19.292969 32.539062 -17.097656 31.0625 -15.53125 Z M 31.0625 -15.53125 "/></g></g></g><g fill="#ffffff" fill-opacity="1"><g transform="translate(158.531812, 208.193233)"><g><path d="M 33.792969 -42.34375 C 31.421875 -43.507812 28.378906 -43.863281 25.917969 -43.820312 C 23.363281 -43.597656 21.039062 -42.746094 18.933594 -41.671875 C 17.1875 -40.777344 15.710938 -39.613281 14.457031 -38.449219 L 14.324219 -38.851562 C 13.113281 -42.476562 11.414062 -43.953125 8.726562 -43.953125 C 6.132812 -43.953125 4.835938 -42.65625 4.835938 -40.105469 L 4.835938 -6.355469 C 4.835938 -4.386719 5.59375 -2.640625 6.847656 -1.386719 C 8.101562 -0.0898438 9.890625 0.671875 11.863281 0.671875 C 13.785156 0.671875 15.53125 -0.0898438 16.828125 -1.386719 C 18.082031 -2.640625 18.890625 -4.386719 18.890625 -6.355469 L 18.890625 -22.199219 C 19.203125 -25.917969 20.679688 -28.871094 23.542969 -29.898438 C 24.664062 -30.214844 25.78125 -30.300781 26.902344 -30.167969 C 28.019531 -29.988281 29.140625 -29.898438 30.214844 -29.855469 C 32.539062 -29.855469 34.152344 -30.300781 35.585938 -31.421875 C 36.972656 -32.539062 37.957031 -34.332031 37.957031 -36.300781 C 37.957031 -39.210938 36.167969 -41.179688 33.792969 -42.34375 Z M 33.792969 -42.34375 "/></g></g></g><g fill="#ffffff" fill-opacity="1"><g transform="translate(198.412799, 208.193233)"><g><path d="M 41.359375 -37.417969 C 39.613281 -39.34375 37.152344 -41 34.285156 -42.164062 C 31.421875 -43.328125 28.242188 -43.953125 25.019531 -43.953125 C 18.890625 -43.953125 13.339844 -41.449219 9.308594 -37.375 C 5.28125 -33.300781 2.730469 -27.75 2.730469 -21.617188 C 2.730469 -15.488281 5.28125 -9.890625 9.308594 -5.863281 C 13.339844 -1.835938 18.890625 0.714844 25.019531 0.714844 C 30.4375 0.714844 35.136719 -0.714844 38.449219 -2.910156 C 41.761719 -5.058594 43.730469 -7.921875 43.730469 -10.921875 C 43.730469 -13.605469 42.433594 -15.578125 40.464844 -16.605469 C 38.359375 -17.636719 35.898438 -17.367188 34.0625 -16.425781 C 32.40625 -15.21875 30.480469 -14.144531 28.378906 -13.742188 C 25.46875 -13.070312 22.558594 -13.429688 20.410156 -14.769531 C 18.261719 -16.113281 16.828125 -18.394531 16.828125 -21.617188 C 16.828125 -24.976562 18.394531 -27.257812 20.589844 -28.558594 C 22.78125 -29.808594 25.691406 -30.078125 28.378906 -29.496094 C 29.855469 -29.003906 31.242188 -28.378906 32.628906 -27.707031 C 34.019531 -27.035156 35.40625 -26.453125 36.835938 -26.09375 C 38.808594 -25.917969 40.550781 -26.632812 41.761719 -27.796875 C 42.96875 -28.960938 43.6875 -30.617188 43.6875 -32.40625 C 43.6875 -34.152344 42.789062 -35.851562 41.359375 -37.417969 Z M 41.359375 -37.417969 "/></g></g></g><g fill="#ff5733" fill-opacity="1"><g transform="translate(298.951318, 215.88455)"><g><path d="M 43.519531 -87.023438 C 41.601562 -87.355469 39.191406 -86.820312 36.820312 -85.730469 C 34.453125 -84.644531 32.125 -83.003906 30.347656 -81.402344 C 28.570312 -79.804688 27.191406 -78.136719 26.972656 -76.878906 C 26.417969 -74.863281 26.511719 -72.257812 29.144531 -70.164062 C 30.210938 -69.230469 31.476562 -68.671875 32.875 -68.496094 C 35.257812 -68.082031 39.027344 -68.996094 42.359375 -70.527344 C 45.691406 -72.0625 48.628906 -74.074219 49.515625 -76.03125 C 50.523438 -78.3125 50.285156 -80.871094 49.152344 -82.976562 C 48.007812 -85.015625 45.898438 -86.609375 43.519531 -87.023438 Z M 8.773438 -8.152344 C 8.269531 -5.242188 8.945312 -2.46875 10.476562 -0.292969 C 11.996094 1.945312 14.378906 3.519531 17.289062 4.023438 C 20.132812 4.515625 22.910156 3.839844 25.160156 2.253906 C 27.332031 0.722656 28.972656 -1.648438 29.476562 -4.558594 L 37.34375 -49.867188 C 37.847656 -52.777344 37.105469 -55.566406 35.574219 -57.738281 C 33.976562 -59.921875 31.605469 -61.5625 28.757812 -62.054688 C 25.847656 -62.5625 23.0625 -61.816406 20.890625 -60.289062 C 18.714844 -58.757812 17.144531 -56.371094 16.636719 -53.460938 Z M 8.773438 -8.152344 "/></g></g></g><g fill="#ff5733" fill-opacity="1"><g transform="translate(240.321667, 208.52301)"><g><path d="M 62.398438 -47.148438 C 59.042969 -47.625 56.382812 -45.78125 54.445312 -41.78125 L 54.363281 -41.621094 C 51.089844 -46.253906 46.011719 -49.429688 39.304688 -50.390625 C 31.707031 -51.476562 24.273438 -49.34375 18.460938 -44.984375 C 12.648438 -40.625 8.527344 -34.140625 7.433594 -26.484375 C 6.339844 -18.828125 8.472656 -11.394531 12.839844 -5.636719 C 17.207031 0.121094 23.738281 4.304688 31.339844 5.390625 C 37.933594 6.332031 43.578125 4.742188 47.929688 1.429688 L 48.144531 2.316406 C 49.03125 5.691406 50.84375 8.175781 54.195312 8.65625 C 57.550781 9.132812 59.492188 7.527344 59.96875 4.175781 L 63.097656 -17.734375 L 66.515625 -41.652344 C 66.972656 -44.839844 65.582031 -46.691406 62.398438 -47.148438 Z M 41.558594 -13.851562 C 39.425781 -12.105469 36.679688 -11.242188 33.773438 -11.65625 C 30.867188 -12.074219 28.472656 -13.667969 26.914062 -15.945312 C 25.351562 -18.164062 24.625 -21.0625 25.039062 -23.96875 C 25.453125 -26.875 26.960938 -29.453125 29.085938 -31.148438 C 31.210938 -32.839844 33.957031 -33.703125 36.863281 -33.285156 C 39.769531 -32.871094 42.164062 -31.273438 43.730469 -29.054688 C 45.292969 -26.835938 46.019531 -23.9375 45.605469 -21.03125 C 45.191406 -18.125 43.683594 -15.546875 41.558594 -13.851562 Z M 41.558594 -13.851562 "/></g></g></g></svg>